<?xml version="1.0" encoding="utf-8"?>
<!-- Generator: Adobe Illustrator 16.0.0, SVG Export Plug-In . SVG Version: 6.00 Build 0)  -->
<!DOCTYPE svg PUBLIC "-//W3C//DTD SVG 1.1//EN" "http://www.w3.org/Graphics/SVG/1.1/DTD/svg11.dtd">
<svg version="1.1" id="Layer_1" xmlns="http://www.w3.org/2000/svg" xmlns:xlink="http://www.w3.org/1999/xlink" x="0px" y="0px"
	 width="182px" height="45px" viewBox="0 0 182 45" enable-background="new 0 0 182 45" xml:space="preserve">
<g>
	<polygon fill="#F43F00" points="10.797,29.551 1.164,13.167 4.329,7.19 14.172,23.926 	"/>
	<polygon fill="#F78C00" points="23.657,23.926 14.172,23.926 10.797,29.551 20.387,29.551 	"/>
	<polygon fill="#F78C00" points="14.937,7.15 4.329,7.19 7.915,13.288 11.22,13.288 	"/>
	<polygon fill="#0031CC" points="14.629,21.341 19.918,12.74 16.964,7.053 11.395,15.91 	"/>
	<polygon fill="#3865F4" points="35.733,7.023 39.082,12.877 19.78,12.877 16.951,7.067 	"/>
	<polygon fill="#0031CC" points="33.755,22.133 30.521,16.507 32.622,12.877 39.082,12.877 	"/>
	<polygon fill="#209604" points="21.24,14.678 27.743,14.678 32.595,23.082 25.897,23.082 	"/>
	<polygon fill="#28CE05" points="23.05,39.904 15.983,39.904 25.897,23.082 32.595,23.082 	"/>
	<polygon fill="#209604" points="11.589,31.014 17.852,31.021 19.458,34.007 15.983,39.904 	"/>
</g>
<g enable-background="new    ">
	<path fill="#414042" d="M62.321,30.142l-1.233,0.028c-0.48,0.01-0.678,0.066-0.8,0.245c-0.085,0.113-0.123,0.217-0.142,0.272
		c-0.019,0.066-0.038,0.104-0.094,0.104c-0.057,0-0.076-0.048-0.076-0.132c0-0.132,0.16-0.904,0.179-0.97
		c0.019-0.104,0.047-0.151,0.094-0.151c0.066,0,0.15,0.066,0.357,0.095c0.245,0.028,0.556,0.037,0.829,0.037h3.361
		c0.264,0,0.443-0.019,0.565-0.037c0.132-0.02,0.198-0.038,0.226-0.038c0.057,0,0.066,0.047,0.066,0.17
		c0,0.169-0.019,0.763-0.019,0.97c-0.009,0.084-0.028,0.132-0.075,0.132c-0.066,0-0.084-0.038-0.094-0.16l-0.009-0.085
		c-0.019-0.207-0.235-0.452-0.979-0.461l-1.045-0.02v3.239c0,0.734,0.009,1.365,0.047,1.713c0.028,0.227,0.075,0.377,0.32,0.414
		c0.113,0.02,0.301,0.028,0.423,0.028c0.094,0,0.132,0.048,0.132,0.085c0,0.057-0.066,0.085-0.16,0.085
		c-0.546,0-1.102-0.028-1.337-0.028c-0.188,0-0.753,0.028-1.083,0.028c-0.104,0-0.16-0.028-0.16-0.085
		c0-0.037,0.028-0.085,0.132-0.085c0.123,0,0.226-0.009,0.292-0.028c0.169-0.037,0.216-0.188,0.245-0.423
		c0.038-0.339,0.038-0.97,0.038-1.704V30.142z"/>
	<path fill="#414042" d="M69.174,31.969c0-1.215,0-1.44-0.01-1.695c-0.019-0.272-0.094-0.357-0.357-0.433
		c-0.066-0.019-0.208-0.028-0.33-0.028c-0.085,0-0.142-0.028-0.142-0.085s0.066-0.075,0.188-0.075c0.433,0,0.96,0.019,1.196,0.019
		c0.264,0,2.1,0.01,2.259,0c0.151-0.009,0.283-0.037,0.349-0.047c0.047-0.01,0.094-0.037,0.132-0.037
		c0.047,0,0.056,0.037,0.056,0.075c0,0.056-0.047,0.15-0.066,0.518c-0.009,0.085-0.028,0.433-0.047,0.527
		c-0.009,0.037-0.028,0.132-0.094,0.132c-0.057,0-0.066-0.038-0.066-0.104c0-0.057-0.009-0.198-0.056-0.292
		c-0.066-0.142-0.132-0.254-0.546-0.292c-0.141-0.019-1.13-0.038-1.299-0.038c-0.038,0-0.056,0.028-0.056,0.076v1.977
		c0,0.047,0.009,0.085,0.056,0.085c0.188,0,1.262,0,1.45-0.019c0.198-0.02,0.311-0.048,0.396-0.123
		c0.065-0.057,0.094-0.104,0.131-0.104c0.038,0,0.066,0.038,0.066,0.085s-0.019,0.179-0.066,0.584
		c-0.019,0.16-0.038,0.479-0.038,0.536c0,0.066-0.009,0.179-0.084,0.179c-0.057,0-0.075-0.028-0.075-0.065
		c-0.01-0.085-0.01-0.188-0.028-0.292c-0.047-0.16-0.151-0.282-0.461-0.311c-0.151-0.019-1.092-0.038-1.299-0.038
		c-0.038,0-0.047,0.038-0.047,0.085v0.641c0,0.272-0.01,0.95,0,1.186c0.019,0.546,0.273,0.669,1.12,0.669
		c0.217,0,0.565-0.01,0.782-0.104c0.207-0.095,0.301-0.264,0.357-0.594c0.019-0.084,0.038-0.122,0.094-0.122
		c0.066,0,0.075,0.104,0.075,0.188c0,0.179-0.066,0.725-0.113,0.885c-0.057,0.207-0.132,0.207-0.442,0.207
		c-0.622,0-1.121-0.009-1.525-0.028c-0.405-0.009-0.715-0.019-0.96-0.019c-0.094,0-0.273,0.01-0.471,0.01
		c-0.198,0.009-0.405,0.019-0.574,0.019c-0.104,0-0.16-0.028-0.16-0.085c0-0.037,0.028-0.085,0.132-0.085
		c0.123,0,0.217-0.009,0.292-0.028c0.169-0.037,0.217-0.188,0.245-0.423c0.038-0.339,0.038-0.97,0.038-1.704V31.969z"/>
	<path fill="#414042" d="M76.724,34.943c-0.819-0.688-1.035-1.591-1.035-2.363c0-0.546,0.179-1.487,0.969-2.193
		c0.603-0.527,1.394-0.848,2.627-0.848c0.518,0,0.829,0.038,1.205,0.085c0.311,0.047,0.583,0.104,0.829,0.132
		c0.094,0.01,0.122,0.047,0.122,0.094c0,0.066-0.019,0.16-0.038,0.443c-0.019,0.264-0.019,0.706-0.028,0.865
		c-0.009,0.113-0.038,0.198-0.113,0.198c-0.066,0-0.085-0.066-0.085-0.17c-0.009-0.254-0.113-0.536-0.32-0.743
		c-0.283-0.273-0.838-0.471-1.601-0.471c-0.725,0-1.186,0.132-1.563,0.452c-0.612,0.526-0.762,1.299-0.762,2.08
		c0,1.902,1.468,2.806,2.58,2.806c0.734,0,1.139-0.057,1.469-0.424c0.141-0.16,0.254-0.386,0.282-0.536
		c0.019-0.123,0.038-0.16,0.104-0.16c0.057,0,0.094,0.075,0.094,0.141c0,0.095-0.094,0.791-0.179,1.064
		c-0.038,0.141-0.076,0.179-0.217,0.235c-0.33,0.132-0.96,0.179-1.497,0.179C78.438,35.81,77.478,35.574,76.724,34.943z"/>
	<path fill="#414042" d="M89.518,32.26c0.019,0,0.047-0.009,0.047-0.056v-0.17c0-1.215-0.009-1.506-0.019-1.761
		c-0.019-0.272-0.094-0.357-0.358-0.433c-0.066-0.019-0.207-0.028-0.32-0.028c-0.094,0-0.141-0.028-0.141-0.085
		s0.057-0.075,0.179-0.075c0.443,0,1.026,0.019,1.243,0.019c0.197,0,0.744-0.019,1.063-0.019c0.123,0,0.179,0.019,0.179,0.075
		s-0.057,0.085-0.151,0.085c-0.066,0-0.141,0.01-0.245,0.028c-0.217,0.037-0.283,0.15-0.301,0.433
		c-0.019,0.255-0.019,0.48-0.019,1.695v1.412c0,0.734,0,1.365,0.038,1.713c0.028,0.227,0.076,0.377,0.33,0.414
		c0.113,0.02,0.292,0.028,0.424,0.028c0.084,0,0.132,0.048,0.132,0.085c0,0.057-0.065,0.085-0.169,0.085
		c-0.537,0-1.083-0.028-1.309-0.028c-0.188,0-0.772,0.028-1.092,0.028c-0.113,0-0.179-0.028-0.179-0.085
		c0-0.037,0.038-0.085,0.132-0.085c0.132,0,0.226-0.009,0.301-0.028c0.169-0.037,0.216-0.188,0.245-0.423
		c0.038-0.339,0.038-0.951,0.038-1.686v-0.612c0-0.028-0.028-0.047-0.047-0.047h-3.126c-0.028,0-0.056,0.01-0.056,0.047v0.612
		c0,0.734,0.009,1.347,0.047,1.694c0.028,0.227,0.075,0.377,0.32,0.414c0.113,0.02,0.301,0.028,0.423,0.028
		c0.094,0,0.132,0.048,0.132,0.085c0,0.057-0.066,0.085-0.169,0.085c-0.537,0-1.111-0.028-1.346-0.028
		c-0.188,0-0.734,0.028-1.064,0.028c-0.104,0-0.16-0.028-0.16-0.085c0-0.037,0.028-0.085,0.132-0.085
		c0.123,0,0.217-0.009,0.292-0.028c0.169-0.037,0.217-0.188,0.245-0.423c0.038-0.339,0.038-0.97,0.038-1.704v-1.412
		c0-1.215,0-1.44-0.01-1.695c-0.019-0.272-0.094-0.357-0.357-0.433c-0.066-0.019-0.208-0.028-0.33-0.028
		c-0.085,0-0.142-0.028-0.142-0.085s0.066-0.075,0.179-0.075c0.442,0,0.988,0.019,1.214,0.019c0.198,0,0.772-0.019,1.102-0.019
		c0.113,0,0.169,0.019,0.169,0.075s-0.047,0.085-0.15,0.085c-0.066,0-0.142,0.01-0.235,0.028c-0.226,0.037-0.292,0.15-0.311,0.433
		c-0.019,0.255-0.019,0.546-0.019,1.761v0.17c0,0.047,0.028,0.056,0.056,0.056H89.518z"/>
	<path fill="#414042" d="M95.9,34.614c0.02,0.621,0.123,0.81,0.282,0.866c0.142,0.047,0.302,0.056,0.433,0.056
		c0.095,0,0.143,0.038,0.143,0.085c0,0.066-0.076,0.085-0.189,0.085c-0.536,0-0.922-0.028-1.072-0.028
		c-0.076,0-0.471,0.028-0.895,0.028c-0.113,0-0.188-0.01-0.188-0.085c0-0.047,0.056-0.085,0.132-0.085
		c0.113,0,0.264-0.009,0.377-0.037c0.216-0.057,0.244-0.273,0.254-0.97l0.075-4.745c0-0.16,0.056-0.273,0.142-0.273
		c0.104,0,0.216,0.123,0.357,0.264c0.104,0.104,1.346,1.375,2.551,2.552c0.565,0.556,1.666,1.686,1.789,1.798h0.037l-0.084-3.559
		c-0.01-0.489-0.085-0.631-0.283-0.706c-0.121-0.047-0.319-0.047-0.433-0.047c-0.104,0-0.132-0.038-0.132-0.085
		c0-0.065,0.085-0.075,0.207-0.075c0.434,0,0.876,0.019,1.055,0.019c0.094,0,0.404-0.019,0.81-0.019c0.113,0,0.188,0.01,0.188,0.075
		c0,0.047-0.047,0.085-0.141,0.085c-0.086,0-0.151,0-0.255,0.028c-0.226,0.065-0.292,0.207-0.302,0.659l-0.094,5.046
		c0,0.179-0.066,0.254-0.132,0.254c-0.142,0-0.254-0.084-0.339-0.169c-0.518-0.48-1.553-1.469-2.42-2.307
		c-0.903-0.866-1.779-1.836-1.939-1.978h-0.027L95.9,34.614z"/>
	<path fill="#414042" d="M104.297,32.675c0-1.365,0.961-3.136,3.475-3.136c2.09,0,3.39,1.158,3.39,2.994s-1.337,3.276-3.474,3.276
		C105.277,35.81,104.297,34.096,104.297,32.675z M109.928,32.825c0-1.771-1.064-2.862-2.4-2.862c-0.924,0-2.006,0.489-2.006,2.467
		c0,1.647,0.941,2.947,2.504,2.947C108.609,35.377,109.928,35.104,109.928,32.825z"/>
	<path fill="#414042" d="M115.811,33.381c0,1.026,0,1.534,0.18,1.685c0.141,0.123,0.461,0.17,1.102,0.17
		c0.441,0,0.762-0.01,0.969-0.226c0.104-0.104,0.189-0.33,0.207-0.48c0.01-0.075,0.029-0.122,0.095-0.122
		c0.057,0,0.075,0.084,0.075,0.179c0,0.094-0.057,0.687-0.123,0.922c-0.056,0.18-0.094,0.217-0.526,0.217
		c-0.593,0-1.073-0.009-1.487-0.028c-0.414-0.009-0.763-0.019-1.102-0.019c-0.094,0-0.273,0.01-0.471,0.01
		c-0.198,0.009-0.405,0.019-0.574,0.019c-0.104,0-0.16-0.028-0.16-0.085c0-0.037,0.027-0.085,0.131-0.085
		c0.123,0,0.217-0.009,0.293-0.028c0.169-0.037,0.217-0.188,0.244-0.423c0.037-0.339,0.037-0.97,0.037-1.704v-1.412
		c0-1.215,0-1.44-0.009-1.695c-0.019-0.272-0.095-0.357-0.357-0.433c-0.065-0.019-0.17-0.028-0.273-0.028
		c-0.094,0-0.142-0.028-0.142-0.085s0.057-0.075,0.18-0.075c0.386,0,0.913,0.019,1.139,0.019c0.197,0,0.876-0.019,1.195-0.019
		c0.123,0,0.18,0.019,0.18,0.075s-0.047,0.085-0.15,0.085c-0.095,0-0.227,0.01-0.32,0.028c-0.227,0.037-0.292,0.15-0.311,0.433
		c-0.02,0.255-0.02,0.48-0.02,1.695V33.381z"/>
	<path fill="#414042" d="M120.801,32.675c0-1.365,0.959-3.136,3.473-3.136c2.091,0,3.391,1.158,3.391,2.994
		s-1.338,3.276-3.475,3.276C121.779,35.81,120.801,34.096,120.801,32.675z M126.43,32.825c0-1.771-1.063-2.862-2.4-2.862
		c-0.923,0-2.006,0.489-2.006,2.467c0,1.647,0.941,2.947,2.505,2.947C125.111,35.377,126.43,35.104,126.43,32.825z"/>
	<path fill="#414042" d="M136.541,35.169c0,0.217,0,0.227-0.104,0.283c-0.556,0.272-1.375,0.357-2.024,0.357
		c-2.034,0-3.831-0.923-3.831-3.135c0-1.28,0.687-2.175,1.449-2.617c0.791-0.462,1.535-0.519,2.23-0.519
		c0.575,0,1.3,0.095,1.469,0.132c0.17,0.028,0.462,0.075,0.66,0.085c0.094,0.01,0.112,0.038,0.112,0.094
		c0,0.095-0.056,0.312-0.056,1.318c0,0.122-0.048,0.179-0.113,0.179c-0.057,0-0.076-0.037-0.085-0.104
		c-0.019-0.179-0.065-0.433-0.282-0.659c-0.245-0.254-0.867-0.611-1.799-0.611c-0.451,0-1.025,0.009-1.6,0.471
		c-0.462,0.376-0.764,0.97-0.764,1.948c0,1.724,1.111,2.976,2.881,2.976c0.217,0,0.387,0,0.584-0.085
		c0.123-0.057,0.16-0.142,0.16-0.282v-0.734c0-0.396,0-0.697-0.01-0.941c-0.009-0.273-0.094-0.357-0.357-0.434
		c-0.066-0.019-0.207-0.028-0.32-0.028c-0.074,0-0.131-0.037-0.131-0.084c0-0.066,0.065-0.075,0.178-0.075
		c0.434,0,1.027,0.019,1.271,0.019c0.264,0,0.697-0.019,0.97-0.019c0.113,0,0.169,0.009,0.169,0.075
		c0,0.047-0.047,0.084-0.104,0.084c-0.065,0-0.131,0.01-0.226,0.028c-0.226,0.038-0.311,0.151-0.319,0.434
		c-0.01,0.244-0.01,0.564-0.01,0.96V35.169z"/>
	<path fill="#414042" d="M140.852,31.969c0-1.215,0-1.44-0.01-1.695c-0.018-0.272-0.104-0.367-0.281-0.424
		c-0.095-0.027-0.198-0.037-0.302-0.037c-0.085,0-0.132-0.019-0.132-0.095c0-0.047,0.066-0.065,0.197-0.065
		c0.311,0,0.876,0.019,1.111,0.019c0.207,0,0.744-0.019,1.064-0.019c0.104,0,0.169,0.019,0.169,0.065
		c0,0.076-0.048,0.095-0.132,0.095c-0.085,0-0.15,0.01-0.244,0.028c-0.227,0.037-0.293,0.15-0.312,0.433
		c-0.019,0.255-0.019,0.48-0.019,1.695v1.412c0,0.771,0,1.412,0.037,1.751c0.029,0.217,0.085,0.339,0.33,0.376
		c0.113,0.02,0.301,0.028,0.424,0.028c0.094,0,0.131,0.048,0.131,0.085c0,0.057-0.065,0.085-0.16,0.085
		c-0.545,0-1.11-0.028-1.336-0.028c-0.188,0-0.754,0.028-1.083,0.028c-0.104,0-0.16-0.028-0.16-0.085
		c0-0.037,0.028-0.085,0.132-0.085c0.123,0,0.217-0.009,0.292-0.028c0.169-0.037,0.217-0.15,0.245-0.386
		c0.037-0.329,0.037-0.97,0.037-1.741V31.969z"/>
	<path fill="#414042" d="M146.68,31.969c0-1.215,0-1.44-0.01-1.695c-0.02-0.272-0.095-0.357-0.357-0.433
		c-0.066-0.019-0.208-0.028-0.33-0.028c-0.085,0-0.142-0.028-0.142-0.085s0.065-0.075,0.188-0.075c0.434,0,0.961,0.019,1.195,0.019
		c0.264,0,2.1,0.01,2.26,0c0.15-0.009,0.283-0.037,0.349-0.047c0.047-0.01,0.095-0.037,0.132-0.037c0.047,0,0.057,0.037,0.057,0.075
		c0,0.056-0.047,0.15-0.066,0.518c-0.01,0.085-0.027,0.433-0.047,0.527c-0.01,0.037-0.028,0.132-0.094,0.132
		c-0.057,0-0.066-0.038-0.066-0.104c0-0.057-0.01-0.198-0.057-0.292c-0.065-0.142-0.131-0.254-0.546-0.292
		c-0.142-0.019-1.13-0.038-1.3-0.038c-0.037,0-0.056,0.028-0.056,0.076v1.977c0,0.047,0.009,0.085,0.056,0.085
		c0.189,0,1.262,0,1.451-0.019c0.197-0.02,0.311-0.048,0.395-0.123c0.066-0.057,0.094-0.104,0.132-0.104s0.065,0.038,0.065,0.085
		s-0.018,0.179-0.065,0.584c-0.019,0.16-0.038,0.479-0.038,0.536c0,0.066-0.009,0.179-0.084,0.179c-0.057,0-0.075-0.028-0.075-0.065
		c-0.01-0.085-0.01-0.188-0.028-0.292c-0.047-0.16-0.15-0.282-0.461-0.311c-0.151-0.019-1.093-0.038-1.3-0.038
		c-0.038,0-0.047,0.038-0.047,0.085v0.641c0,0.272-0.01,0.95,0,1.186c0.019,0.546,0.272,0.669,1.12,0.669
		c0.217,0,0.564-0.01,0.781-0.104c0.207-0.095,0.301-0.264,0.357-0.594c0.02-0.084,0.038-0.122,0.095-0.122
		c0.065,0,0.075,0.104,0.075,0.188c0,0.179-0.066,0.725-0.113,0.885c-0.057,0.207-0.131,0.207-0.441,0.207
		c-0.622,0-1.121-0.009-1.525-0.028c-0.405-0.009-0.716-0.019-0.961-0.019c-0.094,0-0.273,0.01-0.471,0.01
		c-0.197,0.009-0.404,0.019-0.574,0.019c-0.104,0-0.16-0.028-0.16-0.085c0-0.037,0.028-0.085,0.132-0.085
		c0.122,0,0.217-0.009,0.292-0.028c0.17-0.037,0.217-0.188,0.244-0.423c0.039-0.339,0.039-0.97,0.039-1.704V31.969z"/>
	<path fill="#414042" d="M153.646,35.603c-0.132-0.057-0.16-0.095-0.16-0.273c0-0.433,0.038-0.932,0.048-1.063
		c0-0.122,0.037-0.207,0.104-0.207c0.074,0,0.084,0.075,0.084,0.132c0,0.104,0.028,0.272,0.076,0.414
		c0.178,0.593,0.799,0.791,1.317,0.791c0.716,0,1.148-0.452,1.148-1.017c0-0.349-0.085-0.697-0.819-1.13l-0.48-0.282
		c-0.979-0.575-1.299-1.111-1.299-1.817c0-0.979,0.941-1.61,2.09-1.61c0.537,0,0.961,0.075,1.178,0.132
		c0.074,0.02,0.113,0.047,0.113,0.104c0,0.104-0.029,0.33-0.029,0.961c0,0.169-0.037,0.254-0.104,0.254
		c-0.057,0-0.084-0.047-0.084-0.142c0-0.075-0.038-0.319-0.217-0.527c-0.123-0.15-0.387-0.376-0.923-0.376
		c-0.593,0-1.13,0.311-1.13,0.856c0,0.357,0.132,0.641,0.875,1.055l0.34,0.188c1.092,0.603,1.431,1.214,1.431,1.939
		c0,0.593-0.226,1.073-0.828,1.497c-0.396,0.282-0.942,0.329-1.384,0.329C154.512,35.81,154.004,35.763,153.646,35.603z"/>
</g>
<g>
	<path fill="#0031CC" d="M59.865,10.793h-5.266v11.039h-2.31V10.793h-5.284V8.464h12.859L59.865,10.793L59.865,10.793z"/>
	<path fill="#0031CC" d="M77.127,21.833h-3.444l-3.739-3.758h-5.03v-2.311h6.263c0.861,0,1.585-0.188,2.173-0.566
		c0.665-0.444,0.998-1.077,0.998-1.899c0-1.67-1.057-2.505-3.171-2.505h-7.633v11.039h-2.329V8.464h9.59
		c1.722,0,3.112,0.372,4.169,1.116c1.213,0.848,1.82,2.094,1.82,3.739c0,1.122-0.353,2.087-1.057,2.896
		c-0.653,0.757-1.54,1.286-2.662,1.585L77.127,21.833z"/>
	<path fill="#0031CC" d="M81.981,21.833h-2.33V8.464h2.33V21.833z"/>
	<path fill="#0031CC" d="M102.023,15.002c0,1.97-0.633,3.601-1.898,4.893s-2.877,1.938-4.835,1.938h-3.738
		c-1.944,0-3.552-0.646-4.824-1.938c-1.273-1.292-1.909-2.923-1.909-4.893c0-1.958,0.63-3.537,1.889-4.737
		c1.259-1.2,2.874-1.801,4.844-1.801h3.738c1.983,0,3.603,0.601,4.854,1.801C101.396,11.465,102.023,13.044,102.023,15.002z
		 M99.714,15.198c0-1.292-0.414-2.349-1.243-3.171c-0.828-0.822-1.889-1.233-3.181-1.233h-3.738c-1.278,0-2.332,0.411-3.16,1.233
		c-0.829,0.822-1.244,1.879-1.244,3.171c0,1.278,0.415,2.315,1.244,3.112c0.828,0.796,1.882,1.194,3.16,1.194h3.738
		c1.292,0,2.353-0.397,3.181-1.194C99.3,17.514,99.714,16.476,99.714,15.198z"/>
	<path fill="#28CE05" d="M121.126,21.833l-2.994-0.02l-2.251-3.738h-6.342l1.409-2.311h3.543l-2.329-3.855l-6.028,9.903h-2.993
		l7.26-12.075c0.183-0.313,0.438-0.602,0.764-0.861c0.393-0.3,0.743-0.45,1.057-0.45c0.34,0,0.691,0.145,1.059,0.43
		c0.313,0.248,0.566,0.542,0.763,0.881L121.126,21.833z"/>
	<path fill="#28CE05" d="M135.59,20.678c0,0.861-0.293,1.292-0.879,1.292c-0.432,0-0.914-0.267-1.449-0.802l-8.572-8.612v9.277
		h-2.311V9.619c0-0.313,0.085-0.584,0.255-0.813c0.169-0.229,0.411-0.343,0.724-0.343c0.433,0,0.875,0.228,1.332,0.686l8.572,8.592
		V8.464h2.328V20.678z"/>
	<path fill="#28CE05" d="M153.656,21.833h-8.494c-1.945,0-3.553-0.646-4.824-1.938c-1.273-1.292-1.908-2.923-1.908-4.893
		c0-1.958,0.629-3.537,1.889-4.737c1.26-1.2,2.873-1.801,4.845-1.801h7.535v2.329h-7.535c-1.279,0-2.332,0.411-3.161,1.233
		s-1.242,1.879-1.242,3.171c0,1.278,0.413,2.315,1.242,3.112c0.829,0.796,1.882,1.194,3.161,1.194h6.165v-2.917h-6.342v-2.132h8.671
		L153.656,21.833L153.656,21.833z"/>
	<path fill="#28CE05" d="M166.711,21.833h-11.527V8.464h2.328v11.039h9.199V21.833z"/>
	<path fill="#28CE05" d="M180,21.833h-11.547V8.464H180v2.329h-9.218v8.71H180V21.833z M179.395,16.215h-7.634v-2.329h7.634V16.215z
		"/>
</g>
</svg>
